<?xml version="1.0" encoding="utf-8"?>
<!-- Generator: Adobe Illustrator 22.1.0, SVG Export Plug-In . SVG Version: 6.00 Build 0)  -->
<svg version="1.1" id="Layer_1" xmlns="http://www.w3.org/2000/svg" xmlns:xlink="http://www.w3.org/1999/xlink" x="0px" y="0px"
	 viewBox="0 0 277 56" style="enable-background:new 0 0 277 56;" xml:space="preserve" width="277" height="56">
<style type="text/css">
	.st0{fill:#FFFFFF;}
</style>
<title>atlantinivel-logo</title>
<g id="Layer_2_1_">
	<g id="Layer_1-2">
		<path class="st0" d="M186.3,41.1h6.9V28.3c0-0.2,0-0.4,0-0.6s0.1-0.4,0.3-0.5c0.1-0.1,0.3-0.2,0.5-0.2h0.5h1.2
			c0.6,0,1.2,0.1,1.7,0.3c0.5,0.2,0.8,0.5,1.1,0.9s0.5,0.9,0.6,1.5s0.2,1.2,0.1,1.9v9.8h6.9V29.3c0-0.4,0-0.9,0-1.3
			c0-0.5-0.2-1-0.3-1.5c-0.2-0.5-0.4-1-0.7-1.5s-0.8-1-1.2-1.4c-0.9-0.7-1.9-1.2-3-1.4c-1.1-0.2-2.1-0.3-3.2-0.3h-7.5
			c-0.4,0-0.7,0.1-1.1,0.1c-0.4,0.1-0.7,0.2-1.1,0.3c-0.3,0.1-0.6,0.4-0.9,0.6c-0.3,0.3-0.6,0.7-0.7,1.2c-0.1,0.4-0.1,0.8-0.1,1.2
			V41.1z M66.1,41.1h8.1L81,23.6l6.2,17.5h8.4l-9.1-22.6c-0.4-1.6-1.8-2.7-3.4-2.8H76L66.1,41.1z M107.5,41.1V36h-1
			c-0.5,0-1,0-1.5-0.1c-0.6-0.1-1.1-0.4-1.5-0.8c-0.5-0.5-0.9-1.1-1-1.8s-0.2-1.4-0.2-2.1v-4.4h5.3v-4.9h-5.3v-6.2h-6.9v19.4
			c0,0.9,0.2,1.8,0.6,2.6c0.6,1.4,1.9,2.5,3.4,2.9c0.5,0.2,1,0.3,1.6,0.4c0.5,0.1,1,0.1,1.5,0.1L107.5,41.1L107.5,41.1z M109.5,41.1
			h6.9V15.7h-6.9V41.1z M119.4,21.9v4.8h9.3c0.4,0,0.8,0,1.1,0.1c0.7,0.2,1.2,0.7,1.3,1.3c0,0.2,0,0.4,0,0.6V29H123
			c-0.6,0-1.1,0-1.7,0.1s-1.2,0.3-1.6,0.7c-0.4,0.3-0.7,0.6-0.9,1c-0.2,0.4-0.4,0.8-0.5,1.2c-0.1,0.4-0.2,0.9-0.2,1.3
			c0,0.4,0,0.9,0,1.3c0,0.4,0,0.8,0,1.3s0.1,1,0.2,1.5s0.2,1,0.4,1.4c0.2,0.4,0.5,0.8,0.8,1.2c0.4,0.5,1,0.8,1.6,0.9
			c0.6,0.1,1.2,0.2,1.9,0.1h11c0.6,0,1.1-0.1,1.6-0.1c0.6-0.1,1.1-0.4,1.5-0.9c0.4-0.4,0.7-0.9,0.8-1.5c0.1-0.5,0.1-1,0.1-1.6V29
			c0-0.4,0-0.8,0-1.3s-0.1-1-0.3-1.4c-0.1-0.5-0.3-1-0.5-1.4c-0.2-0.5-0.5-0.9-0.9-1.3c-0.5-0.5-1.1-0.9-1.7-1.1
			c-0.9-0.4-1.9-0.6-2.9-0.5h-12.3V21.9z M131.2,33.6v1.2c0,0.2,0,0.3,0,0.5s-0.1,0.3-0.3,0.4c-0.1,0.1-0.3,0.2-0.5,0.2
			s-0.4,0-0.6,0h-3.6c-0.2,0-0.3,0-0.5,0s-0.3-0.1-0.4-0.2c-0.1-0.1-0.2-0.3-0.2-0.4c0-0.1,0-0.3,0-0.4c0-0.2,0-0.3,0-0.5
			s0.1-0.3,0.2-0.4c0.2-0.1,0.3-0.2,0.5-0.3h0.5L131.2,33.6z M140.6,41.1h6.9V28.3c0-0.2,0-0.4,0-0.6s0.1-0.4,0.3-0.5
			c0.1-0.1,0.3-0.2,0.5-0.2h0.5h1.2c0.6,0,1.2,0.1,1.7,0.3c0.5,0.2,0.9,0.5,1.1,0.9c0.3,0.4,0.5,0.9,0.6,1.5s0.1,1.2,0.1,1.9v9.8
			h6.9V29.3c0-0.4,0-0.9,0-1.3c0-0.5-0.2-1-0.3-1.5c-0.2-0.5-0.4-1-0.7-1.5s-0.7-1-1.2-1.4c-0.9-0.7-1.9-1.2-3-1.4
			c-1.1-0.2-2.1-0.3-3.2-0.3h-7.5c-0.4,0-0.7,0.1-1.1,0.1c-0.4,0.1-0.7,0.2-1.1,0.3c-0.3,0.1-0.7,0.4-0.9,0.6
			c-0.3,0.3-0.6,0.7-0.7,1.2c0,0.4,0,0.8,0,1.2L140.6,41.1z M174.7,41.1V36h-1c-0.5,0-1,0-1.5-0.1c-0.6-0.1-1.1-0.4-1.5-0.8
			c-0.5-0.5-0.9-1.1-1-1.8s-0.2-1.4-0.2-2.1v-4.4h5.3v-4.9h-5.3v-6.2h-6.9v19.4c0,0.9,0.2,1.8,0.6,2.6c0.6,1.4,1.8,2.4,3.3,2.9
			c0.5,0.2,1,0.3,1.6,0.4c0.5,0.1,1,0.1,1.5,0.1L174.7,41.1L174.7,41.1z M177,41.1h6.9V21.9H177V41.1z M183.9,19.9v-4.2H177v4.2
			H183.9z M208.7,41.1h6.9V21.9h-6.9V41.1z M215.6,19.9l1.6-4.2h-6.9l-1.6,4.2H215.6z M223.6,21.8h-7.2l7.9,17.7
			c0.1,0.4,0.4,0.7,0.7,1c0.3,0.2,0.6,0.4,1,0.5s0.8,0.2,1.1,0.2h1.2h1.2c0.4,0,0.8-0.1,1.1-0.2c0.4-0.1,0.7-0.3,1-0.5
			c0.3-0.3,0.6-0.6,0.7-1l7.9-17.7H233L228.8,33c0,0.1-0.1,0.3-0.2,0.4c-0.1,0.1-0.2,0.2-0.3,0.2s-0.2,0-0.3-0.2s-0.1-0.3-0.2-0.4
			L223.6,21.8z M264.7,41.1l-2-5.2H250c-0.6,0-1.2,0-1.8-0.1c-0.5,0-1-0.3-1.3-0.8c-0.1-0.2-0.2-0.5-0.3-0.7c0-0.3,0-0.6,0-0.8h11.2
			c0.3,0,0.6,0,0.9,0c0.3-0.1,0.7-0.2,0.9-0.5c0.5-0.4,0.9-1,1-1.6c-0.5-2.4-1.2-4.8-2.4-7c-0.3-0.5-0.6-1-1.1-1.3
			c-0.9-0.7-1.9-1.1-3-1.1c-1.4-0.1-2.7-0.2-4.1-0.2c-0.9,0-1.8,0-2.6,0s-1.6,0.1-2.4,0.2c-0.7,0.1-1.4,0.3-2.1,0.6
			c-0.6,0.2-1.2,0.6-1.6,1.1c-0.4,0.4-0.8,1-1,1.5c-0.2,0.6-0.4,1.2-0.4,1.9c-0.1,0.7-0.1,1.5-0.1,2.2v2.5c0,1.7,0,3.2,0.2,4.2
			c0.1,0.9,0.3,1.8,0.8,2.7c0.3,0.6,0.7,1.1,1.3,1.5c0.5,0.3,1,0.6,1.5,0.7c0.6,0.2,1.2,0.2,1.9,0.3h2L264.7,41.1z M246.6,28.9
			c-0.1-0.4-0.1-0.9,0-1.3s0.3-0.7,0.7-0.9c0.3-0.2,0.7-0.3,1.1-0.3h1.3h0.8l1,0.1c0.4,0.1,0.8,0.3,1,0.5s0.2,0.5,0.2,0.8
			c0,0.2-0.1,0.5-0.2,0.7c-0.1,0.2-0.4,0.4-0.9,0.4L246.6,28.9z M267.3,41.1h8.1l-9.9-25.4h-8.1L267.3,41.1z"/>
		<polygon class="st0" points="128.3,19.9 127.4,17.4 126.4,19.9 121.7,19.9 123.3,15.7 131.5,15.7 133.1,19.9 		"/>
		<path class="st0" d="M271.5,6.5c0.9,0,1.9,0.2,2.7,0.7c0.9,0.5,1.6,1.1,2.1,2c1,1.7,1,3.8,0,5.5c-0.5,0.9-1.2,1.6-2,2.1
			s-1.8,0.7-2.7,0.7c-1,0-1.9-0.3-2.7-0.7c-0.8-0.4-1.5-1.1-2-1.9c-0.5-0.8-0.7-1.8-0.7-2.7c0-1,0.3-1.9,0.7-2.8
			c0.5-0.9,1.2-1.6,2.1-2C269.6,6.8,270.6,6.5,271.5,6.5z M271.5,7.4c-0.8,0-1.6,0.2-2.2,0.6c-0.7,0.4-1.3,1-1.7,1.7
			c-0.4,0.7-0.6,1.5-0.6,2.3s0.2,1.6,0.6,2.3s1,1.3,1.7,1.7c1.4,0.8,3.2,0.8,4.6,0c0.7-0.4,1.3-1,1.7-1.7c0.4-0.7,0.6-1.5,0.6-2.3
			s-0.2-1.6-0.6-2.3s-1-1.3-1.7-1.7C273.1,7.6,272.3,7.4,271.5,7.4z M269.1,15V9.2h2c0.5,0,1,0,1.5,0.2c0.3,0.1,0.6,0.3,0.7,0.6
			c0.2,0.3,0.3,0.6,0.3,0.9c0,0.4-0.2,0.8-0.5,1.1s-0.8,0.5-1.2,0.5c0.2,0.1,0.4,0.2,0.5,0.3c0.3,0.4,0.6,0.8,0.9,1.2l0.7,1.2h-1.1
			l-0.5-0.9c-0.2-0.5-0.6-1-1-1.4c-0.2-0.1-0.5-0.2-0.8-0.2H270V15H269.1z M270,11.7h1.2c0.4,0,0.8,0,1.1-0.2
			c0.2-0.2,0.3-0.4,0.3-0.7c0-0.2,0-0.3-0.1-0.5c-0.1-0.1-0.2-0.3-0.4-0.3c-0.3,0-0.6,0-1,0H270V11.7z"/>
	</g>
</g>
<path class="st0" d="M28,0C12.6,0,0.1,12.4,0,27.9c0,15.5,12.5,28,28,28V56c15.5,0,28-12.5,28-28S43.5,0,28,0z M12.4,39.9l11.8-27.7
	h5c3.5,0.1,6.6,2.4,7.7,5.7L43,32.6h-8.6L29.3,19l-8.7,20.9H12.4z M39.9,39.9H22.4l2.5-5.9h18.9C42.9,36.2,41.6,38.2,39.9,39.9z"/>
</svg>
